<svg width="213" height="35" viewBox="0 0 213 35" fill="none" xmlns="http://www.w3.org/2000/svg">
<path d="M1.54972e-05 33.888V0.287998H2.92802L18.288 26.496H16.752L31.968 0.287998H34.896V33.888H31.488V5.616H32.304L18.288 29.616H16.608L2.49602 5.616H3.40802V33.888H1.54972e-05ZM48.0518 15.312H65.8118V18.336H48.0518V15.312ZM48.4358 30.816H68.6438V33.888H44.8838V0.287998H67.9238V3.36H48.4358V30.816ZM76.0331 33.888V0.287998H78.9611L94.3211 26.496H92.7851L108.001 0.287998H110.929V33.888H107.521V5.616H108.337L94.3211 29.616H92.6411L78.5291 5.616H79.4411V33.888H76.0331ZM135.605 34.176C133.077 34.176 130.725 33.76 128.549 32.928C126.405 32.064 124.533 30.864 122.933 29.328C121.365 27.76 120.133 25.952 119.237 23.904C118.373 21.824 117.941 19.552 117.941 17.088C117.941 14.624 118.373 12.368 119.237 10.32C120.133 8.24 121.365 6.432 122.933 4.896C124.533 3.328 126.405 2.128 128.549 1.296C130.693 0.431999 133.045 -9.53674e-07 135.605 -9.53674e-07C138.133 -9.53674e-07 140.469 0.431999 142.613 1.296C144.757 2.128 146.613 3.312 148.181 4.848C149.781 6.384 151.013 8.192 151.877 10.272C152.773 12.352 153.221 14.624 153.221 17.088C153.221 19.552 152.773 21.824 151.877 23.904C151.013 25.984 149.781 27.792 148.181 29.328C146.613 30.864 144.757 32.064 142.613 32.928C140.469 33.76 138.133 34.176 135.605 34.176ZM135.605 31.008C137.621 31.008 139.477 30.672 141.173 30C142.901 29.296 144.389 28.32 145.637 27.072C146.917 25.792 147.909 24.32 148.613 22.656C149.317 20.96 149.669 19.104 149.669 17.088C149.669 15.072 149.317 13.232 148.613 11.568C147.909 9.872 146.917 8.4 145.637 7.152C144.389 5.872 142.901 4.896 141.173 4.224C139.477 3.52 137.621 3.168 135.605 3.168C133.589 3.168 131.717 3.52 129.989 4.224C128.261 4.896 126.757 5.872 125.477 7.152C124.229 8.4 123.237 9.872 122.501 11.568C121.797 13.232 121.445 15.072 121.445 17.088C121.445 19.072 121.797 20.912 122.501 22.608C123.237 24.304 124.229 25.792 125.477 27.072C126.757 28.32 128.261 29.296 129.989 30C131.717 30.672 133.589 31.008 135.605 31.008ZM166.282 33.888V3.36H154.474V0.287998H181.642V3.36H169.834V33.888H166.282ZM200.48 34.176C197.952 34.176 195.616 33.76 193.472 32.928C191.328 32.064 189.472 30.864 187.904 29.328C186.336 27.792 185.104 25.984 184.208 23.904C183.344 21.824 182.912 19.552 182.912 17.088C182.912 14.624 183.344 12.352 184.208 10.272C185.104 8.192 186.336 6.384 187.904 4.848C189.504 3.312 191.376 2.128 193.52 1.296C195.664 0.431999 198 -9.53674e-07 200.528 -9.53674e-07C202.96 -9.53674e-07 205.248 0.415999 207.392 1.248C209.536 2.048 211.344 3.264 212.816 4.896L210.56 7.152C209.184 5.744 207.664 4.736 206 4.128C204.336 3.488 202.544 3.168 200.624 3.168C198.608 3.168 196.736 3.52 195.008 4.224C193.28 4.896 191.776 5.872 190.496 7.152C189.216 8.4 188.208 9.872 187.472 11.568C186.768 13.232 186.416 15.072 186.416 17.088C186.416 19.104 186.768 20.96 187.472 22.656C188.208 24.32 189.216 25.792 190.496 27.072C191.776 28.32 193.28 29.296 195.008 30C196.736 30.672 198.608 31.008 200.624 31.008C202.544 31.008 204.336 30.688 206 30.048C207.664 29.408 209.184 28.384 210.56 26.976L212.816 29.232C211.344 30.864 209.536 32.096 207.392 32.928C205.248 33.76 202.944 34.176 200.48 34.176Z" fill="#003247"/>
</svg>
